<svg width="25" height="26" viewBox="0 0 25 26" fill="none" xmlns="http://www.w3.org/2000/svg">
<path fill-rule="evenodd" clip-rule="evenodd" d="M0.0425366 7.13414C0.0425366 5.83135 1.05006 4.82259 2.56739 4.82259C4.08472 4.82259 7.19779 4.78766 7.19779 4.78766C7.19779 4.78766 7.15029 3.70252 7.15029 2.32242C7.15029 0.942629 8.38508 0 9.86547 0C11.3462 0 18.681 0.0622521 19.4007 0.0622521C20.1204 0.0622521 20.7043 0.329113 21.5111 0.942473C22.3177 1.55614 23.5373 2.58183 24.1412 3.2652C24.7451 3.94858 25 4.34755 25 4.91139C25 5.47538 25 16.8427 24.9907 18.1597C24.9815 19.477 23.7678 20.4506 22.3308 20.4699C20.8937 20.4891 17.8078 20.4891 17.8078 20.4891C17.8078 20.4891 17.8801 21.4633 17.8801 22.841C17.8801 24.2188 16.6217 25.2956 15.1918 25.3336C13.762 25.3716 4.02309 25.2575 2.63523 25.2956C1.24737 25.3336 0 24.2409 0 22.9014C0 21.562 0.0425366 8.43678 0.0425366 7.13414ZM2.64035 7.74673L2.46152 22.1614C2.46045 22.2428 2.47555 22.3236 2.50594 22.3991C2.53634 22.4746 2.58143 22.5433 2.63859 22.6012C2.69575 22.6592 2.76384 22.7052 2.83892 22.7366C2.914 22.768 2.99457 22.7842 3.07596 22.7842L14.5504 22.8184C14.6312 22.8194 14.7115 22.804 14.7863 22.7731C14.861 22.7423 14.9288 22.6967 14.9855 22.639C15.0422 22.5813 15.0867 22.5128 15.1162 22.4375C15.1457 22.3622 15.1597 22.2817 15.1574 22.2008L15.1235 20.8204C15.1228 20.7796 15.114 20.7393 15.0976 20.7019C15.0812 20.6645 15.0576 20.6307 15.028 20.6025C14.9985 20.5743 14.9636 20.5522 14.9255 20.5376C14.8874 20.5229 14.8467 20.516 14.8059 20.5172C14.8059 20.5172 11.4114 20.6166 9.87432 20.5627C8.33711 20.5087 7.28612 19.506 7.28566 18.154C7.28519 16.802 7.28612 7.42025 7.28612 7.42025C7.28621 7.37941 7.27819 7.33897 7.26253 7.30125C7.24688 7.26353 7.2239 7.22929 7.19492 7.20052C7.16594 7.17174 7.13154 7.149 7.09372 7.13361C7.05589 7.11822 7.01539 7.11048 6.97455 7.11085L3.26877 7.12358C3.10337 7.12474 2.945 7.1906 2.82755 7.30706C2.7101 7.42353 2.64291 7.58134 2.64035 7.74673ZM19.1749 2.27321C18.9162 2.04811 18.7066 2.1428 18.7066 2.4862V5.1649C18.7066 5.3366 18.8454 5.47647 19.0167 5.4774L22.2563 5.49308C22.5984 5.49479 22.6663 5.31362 22.4078 5.08852L19.1749 2.27321ZM10.232 2.4047C10.1911 2.40433 10.1506 2.41202 10.1127 2.42734C10.0748 2.44266 10.0403 2.4653 10.0112 2.49397C9.98206 2.52263 9.95887 2.55676 9.94295 2.5944C9.92703 2.63204 9.91869 2.67245 9.91841 2.71332L9.82122 17.6617C9.82063 17.7227 9.83216 17.7833 9.85514 17.8398C9.87813 17.8963 9.91211 17.9477 9.95512 17.991C9.99813 18.0343 10.0493 18.0686 10.1057 18.0919C10.1621 18.1153 10.2225 18.1272 10.2835 18.127L21.9577 18.0981C22.0409 18.0977 22.1206 18.0648 22.1799 18.0065C22.2392 17.9481 22.2733 17.8689 22.275 17.7858L22.4719 8.0954C22.473 8.05482 22.4659 8.01443 22.4511 7.97664C22.4363 7.93884 22.414 7.90441 22.3857 7.87539C22.3573 7.84637 22.3233 7.82335 22.2859 7.8077C22.2484 7.79205 22.2082 7.78409 22.1676 7.78429C22.1676 7.78429 18.1046 7.79081 17.3888 7.79081C16.673 7.79081 16.2191 7.44587 16.2191 6.78454C16.2191 6.12321 16.2054 2.75368 16.2054 2.75368C16.2048 2.67086 16.1716 2.5916 16.1131 2.533C16.0546 2.47439 15.9754 2.44113 15.8926 2.4404L10.232 2.4047Z" fill="#3A3A3A"/>
</svg>
